<?xml version="1.0" encoding="UTF-8"?>
<svg id="svg1" xmlns="http://www.w3.org/2000/svg" xmlns:svg="http://www.w3.org/2000/svg" version="1.1" viewBox="0 0 2155.3 244.1">
  <!-- Generator: Adobe Illustrator 29.7.1, SVG Export Plug-In . SVG Version: 2.1.1 Build 8)  -->
  <g id="g1">
    <path id="path1" d="M115.9,194.3c-2.4-1.1-3.8-2.6-8-8-6-7.8-12.6-13.7-24.6-21.7-8.9-6-21.8-16.3-25.9-20.7-3.9-4.2-4.9-9-2.9-12.9,1.2-2.2,3.8-3.8,6.4-3.8s8.9,3.2,13,6.1c2.7,2,11.7,7,12.4,7s.5-4.2-.2-6.7c-.8-2.7-3.8-8.3-9.3-17.1-2.3-3.7-4.9-8-5.8-9.7-1.7-3.1-4.3-7.3-8.8-14.1-3.7-5.7-6.7-10.4-7.7-12.5-1.3-2.5-1.2-6.2,0-8.1,2.1-3.1,5.5-4.2,8.6-2.6,1.6.8,2,1.3,5.8,7.2.5.8,2.6,4,4.6,7.1,4.9,7.5,8.5,13.4,10.6,17.2,1,1.7,2.7,4.6,3.8,6.3,1.1,1.7,2.4,3.8,2.8,4.6,1.1,2.1,3.3,5.5,3.5,5.3.2-.2-.8-2.4-3.6-8.2-.9-2-2.9-6.5-4.4-10.1s-5-11.2-7.8-17c-2.8-5.8-5.3-11.3-5.5-12.4-.9-3.9,1.3-7.7,5-8.9,1.5-.4,2-.4,3.6.2,1,.4,2.2,1.1,2.7,1.7.9,1,6,11,11,21.7,2.5,5.2,6.2,14.2,11.4,27.3,2.1,5.2,2.7,6.3,3.2,5.8.3-.3-2-7.1-4.4-12.9-.8-2-3.2-7.9-5.4-13.2-2.2-5.3-4.9-11.9-6.1-14.7-2.9-6.8-3.5-9.2-2.9-11.5,1-3.6,4.4-6,7.8-5.4,2.2.4,4.2,2.4,5.9,5.8,3.9,8,9.9,23.6,15.2,38.9,1.9,5.7,3.5,9.7,3.5,9,0-3-1.7-11.5-4-19.3-.9-3-1.8-6.6-2.1-8-.9-4.6.4-8,3.8-9.5,2.7-1.2,4.8-.7,7,1.5,1.6,1.6,1.9,2.2,4,9.7,2.5,8.9,3.4,12.7,4.4,19.1.6,3.9,1.8,8.9,3.7,16.6.4,1.4,2.4,9.5,4.5,18.1,2.1,8.5,4.4,17.2,5,19.3,1.6,5.3,1.8,6.6,1.3,10.9-.5,4.4-1.5,6.4-4.6,9.2-6.1,5.5-22.9,14.2-27.2,14.2-.6,0-2.1-.5-3.3-1h0Z"/>
  </g>
  <path d="M2052.7,186.4c-4.8-.9-8.1-2-10.4-3.7-3.6-2.6-4.1-4.3-4.1-12.8,0-6.9-.4-8.5-2.4-10.8-2-2.3-3.9-3.2-10.4-4.9-3-.8-6.3-1.9-7.4-2.4-5.2-2.7-6.6-7.1-4.6-14.9,1.8-7,.2-10.3-5.9-12-1.3-.4-2.8-1.1-3.3-1.6-.9-.8-1-1.2-.8-3.3.2-3.2,1.5-5,6.5-9,6.3-5,6.7-5.7,8.4-12.5,1.8-7.3,4.1-12.3,8.5-18,3.6-4.7,9.6-8.3,17.8-10.8,3.8-1.1,5.2-1.3,10.9-1.5,4.2-.1,7.6,0,9.4.3,9.1,1.6,21.3,11.8,26.2,22.1,2.7,5.6,4,12.7,4,21.4,0,7.7-2.1,13.2-6.9,18.4-1.5,1.6-3.3,3.9-4,5.1-.7,1.2-2,3.1-2.9,4.4l-1.7,2.3v9.4c.4,17.4-1.3,24.4-7.3,30.3-5.2,5.2-10,6.3-19.6,4.6Z"/>
  <path d="M1681.3,186.1c-1.4-.2-3.7-.3-5.2-.4-4.4,0-6.8-1.8-7.5-5.2-.3-1.5.3-4.5,1.1-5.6.7-1,7.6-15.2,8.4-17.4.5-1.3,2.3-5.1,4.2-8.5s3.3-6.2,3.3-6.4c0-.4,5.1-9.7,5.4-9.9.2-.1,1.1-1.8,2.1-3.8,1-2,5.2-9.3,9.4-16.4l7.7-12.8,2-.4c1.7-.3,2.1-.6,2.8-1.9l.8-1.5-6.9-7.8c-9.9-11.1-11-12.5-11-13.7s1.5-2.4,2.7-2.1c.5.1,4.3,4.2,8.6,9,4.3,4.8,7.8,8.7,7.9,8.6,0,0-.3-2.7-.7-5.9-.8-5.3-.8-5.8-.2-6.8.9-1.3,2.5-1.3,3.4,0,.3.5.9,2.8,1.1,5s.6,4,.8,3.9c.2,0,2.5-4,5.2-8.6,5.3-9.1,6.1-9.9,8-8.6.6.4,1.1,1.1,1.1,1.6s-3,6.1-6.7,12.4c-3.7,6.3-6.7,11.8-6.7,12.1s.2,1,.5,1.5c.4.8.7.8,3,.6l2.6-.3,6.3,8.7c3.5,4.8,10.8,14.6,16.2,21.9,19.6,26.3,23.4,32.1,28.5,43.6,2.6,5.9,2.2,8.4-1.7,9.9-3.2,1.2-16.8,2.6-30,3l-8.5.3-1.3-1.2c-.9-.8-2.4-3.7-5-9.6-4.9-11.1-5.8-12.6-7.6-12.7-2-.2-2.8.8-4,4.7-1.9,6.1-5.3,14.7-6.4,16.4-1.8,2.7-3.3,3.3-9.5,3.9-5.9.6-19.9.7-24,.1h0Z"/>
  <g>
    <path d="M1067.3,193.2l-1.1-.9v-34.3c.2-33.3.2-34.4-.7-39.3-2.1-12.1-4.4-18.9-7.7-22.9-1.4-1.7-1.5-3.4-.3-4.7.9-.9,1.1-.9,10.2-.7,12.3.3,16.8,1.1,17.3,3.1.3,1.2.2,1.3-4.3,8.6-3.5,5.6-4.9,8.3-6.4,12.3-1,2.8-1.1,3.7-1.4,14.9-.2,6.6-.5,17.1-.8,23.3-.2,6.2-.4,17.7-.4,25.5v14.1s-1.1.9-1.1.9c-1.4,1.1-1.9,1.1-3.3,0h0Z"/>
    <path d="M1036.4,192.4c-.8-.8-.8-1.4-.8-29.7,0-27.6-.3-39.1-1.3-43.4-.2-1-.7-3.5-1-5.5-.7-4.4-3.2-12-4.7-14.6-.6-1-1.9-2.8-2.9-3.8-2-2.2-2.4-3.9-1-5.1.6-.6,1.8-.7,6.4-.7,3.1,0,7.4.2,9.6.5,2.2.3,5.5.6,7.3.8,2.5.2,3.4.5,3.9,1.1.9,1.2.7,2.8-.6,4.9-.6,1-2.2,3.9-3.5,6.3-5.5,10.4-6.1,15.5-6.5,58.4l-.3,30-1,1c-1.2,1.2-2.4,1.2-3.5.1h0Z"/>
    <path d="M1078.7,137.8c-1.1-.9-1.1-1-.9-3.9.2-1.7.4-5.8.6-9.1.3-5.1.4-6.3,1.1-7,1.2-1.3,2.8-1.1,5.8,1,3.8,2.6,4.7,3,8.3,3.8,5,1,9.8,1.2,16.4.7,8.4-.7,18.3-.7,18.9-.1.3.3.3.9.2,1.5-.2.9-.6,1.1-2.9,1.5-1.4.2-4.5.6-6.8.7-8.3.5-18.4,1.9-22.9,3.1-6.3,1.7-8.9,3-11.7,5.6-2.3,2.2-3.8,3.2-4.6,3.2s-.9-.4-1.5-.9h0Z"/>
    <path d="M1024,85.8c-.5-.2-1.1-.6-1.3-.9-.5-.8-.2-20.9.4-22,1-2,3.2-2.5,4.7-1.1,1.4,1.3,7.8,4.6,11.4,5.9,4.1,1.5,11.4,3.1,17.8,4,4.8.7,9.5.9,44.5,2.1,10.3.4,19.3.8,20.2,1,1.7.4,2.9,2.1,1.9,2.8-.8.6-34.7.5-53.4-.2-14.5-.5-16.5-.5-22.1,0-5.1.6-6.9,1-10.7,2.4-5.5,2.1-8.4,3.5-9.9,4.8-1.3,1.2-2.5,1.5-3.6,1.1h0Z"/>
  </g>
  <g>
    <path d="M1353.8,181.6c-2.4-2.4-2-6.8,1.4-13.7,4.2-8.5,12.8-16,20.7-18.1,3.1-.8,7.3-.8,10.2,0,4.6,1.3,4.1,2.2,4.3-6.8.3-11.9,2.4-22.9,6.8-36.2,1-3.1,1.9-5.7,1.9-5.7s-1-.2-2.2-.4c-6.8-.9-13.2-7.1-15.2-14.8-.9-3.4-.9-7,0-8.3.9-1.4,3.5-2.2,5.2-1.5,1.7.7,2.4,1.9,2.9,4.9.8,4.3,3.3,8.3,6.1,9.6.8.4,2.3.7,3.4.7,1.9,0,2.1-.1,4.7-2.7,2.5-2.6,2.8-2.7,4.6-2.7s3.3.5,4.2,2.1c.9,1.8.8,3.4-.6,6.4-1.5,3.3-1.6,3.7-.1,5.1,1.6,1.5,2.5,1.9,5.7,2.7,2.5.6,3.1.6,6,0,1.8-.4,3.7-.9,4.3-1.2,3.3-1.7,8.3-7.2,10.5-11.6.7-1.3,1.7-2.8,2.3-3.3,2.1-1.6,5.8-.8,6.8,1.4,1.2,2.7.1,6.2-3.5,11.1-4.7,6.3-9.4,10.2-14.7,12-2.9,1-4,1.2-8.6,1.2-4.5,0-5.7-.1-8.2-1-1.6-.5-3.5-1.3-4.3-1.8-.7-.4-1.4-.6-1.5-.5-.4.6-3.2,10.6-4,14.2-1.4,6-2.6,14.6-3,21-.2,3.2-.3,5.9-.2,6s.7-.4,1.5-1c3.2-2.7,9.1-4.9,13.4-4.9,8.1,0,16.8,6.5,21.7,16.2,1.6,3.1,1.9,4.1,1.7,5.4-.3,2.2-2.1,4-4.3,4.3-2.6.3-4-.8-6.3-5.3-2.4-4.6-6-8.5-9.4-10-1.8-.8-2.7-1-4.7-.8-2.1.2-2.9.5-5.4,2.2-3.4,2.3-4.9,4.1-6.4,7.4-1.3,2.9-3.2,4.4-5.6,4.4-1.9,0-3.3-.9-5-3.3-1.5-2.1-5.5-4.7-8.2-5.3-7.3-1.6-19.6,8.7-21.5,18-.7,3.5-1.2,4.6-2.5,5.3-1.9,1-3.6.8-5-.6h0Z"/>
    <path d="M1418.9,90.3c-1.6-.6-2.4-1.6-3-3.2-.4-1.2-.3-1.7.4-3.2,1-2.1,2.1-2.9,4.3-2.9,3.7,0,6.2,3.3,4.9,6.5-1.1,2.6-4,3.8-6.6,2.7Z"/>
    <path d="M1402.4,81.3c-1.3-.7-2.4-2.6-2.4-4s1.1-3.1,2.4-4.2c2.1-1.7,5.6-.8,7,1.7.9,1.4.9,2.6,0,4.2-1.4,2.7-4.4,3.7-7,2.3Z"/>
  </g>
  <path d="M812.5,77.2c-1-6.7-1.8-8.2-4.9-9.1-2.2-.6-3.8,0-7,2.3-3.8,2.8-5.2,5.9-7,15.2-.4,1.9-1,4.9-1.5,6.7-.4,1.8-1.4,6-2.1,9.3-1.4,6.5-2.8,11.3-3.4,12-.5.6-.5-5.8,0-8.8.2-1.4.9-4.6,1.5-7.1.6-2.6,1.2-7.5,1.5-11.1.2-3.6.7-8.4,1-10.6.9-5.9,0-10.3-2.5-11.9-1.2-.8-4.4-.6-6.4.4-3.1,1.6-4.9,6.4-5.6,15-.3,3.3-.5,6.1-.6,6.2,0,.1-.4,2.7-.6,5.7-.6,7-3,19.7-4.2,22.3-.9,2-2.4,3.9-3,3.9s-.9-5.6-.4-9.4c.3-2.1.7-6.2.9-9.1.2-2.9.6-7,.9-9.1.6-4.9.1-7.3-2.2-11.3-2.5-4.2-3.5-5.2-5.4-5.2-3.2,0-4.4,2.2-6.7,11.5-.7,2.8-1.4,7.3-1.7,10.1-.9,11-2.2,16.6-3.8,17.5-1.5.8-1.7-1.2-2.1-17.2-.4-14.6-.4-15.5-1.5-18.9-1.6-5.5-3.4-7.6-6.5-7.6s-4.8,1.9-6.1,4.8c-.6,1.5-.8,3.5-.8,16.4,0,11.3-.3,15.6-.8,18.7-.7,4.2-1.5,6.7-2.2,6.7s-1.3-3.7-1.7-10c-.2-3.3-.5-6.2-.7-6.5-.2-.3-.4-4.5-.5-9.4l-.2-8.9-1.2-1.7c-4-5.7-10.3-2.6-11.6,5.6-.5,3.1-.3,12.7.5,19.1,1,8.6.1,13.5-1.9,10.3-1.5-2.3-2.4-6-3.2-13.4-1.9-17.7-2.2-20.4-3-24.4-.9-4.6-2.1-6.8-4.6-8.5-1.8-1.2-5.1-1.3-7.2-.2-3.4,1.8-4.3,6.1-4.3,20.6,0,8,.2,11.1,1,16.6.5,3.7,1.2,8.6,1.5,10.9s.8,5.2,1.2,6.5c.4,1.3.9,4.8,1.1,7.8.2,3,.8,7.7,1.3,10.5.5,2.8,1,8,1.2,11.6.3,4.2.7,7.6,1.3,9.6,1,3.6,4.4,10.9,6.2,13.6,3.9,5.7,11.4,10.7,19.4,13,4.5,1.3,5.7,1.4,19.3,2.4,6.1.4,16,.8,22,.8,15.7,0,19.1-.7,24.4-5.5,3.4-3.1,5.6-6,7.9-10.5,4-8,5.6-12.7,7-21,1.1-6.7,1.3-9.2,1.7-22.9.4-12.6.5-13,5.5-37,2-9.4,2.1-10.6,1.1-17.4ZM725.8,151.7c-4.8-1.6-7.7-5.4-7.7-10.1s4.8-10.5,10.9-10.5,11.5,5.3,11,10.9c-.3,3.9-2.5,7.1-6,8.9-1.8.9-6.4,1.4-8.2.8ZM756.3,184.4c-11.5,2.2-23.2-1.6-26.4-8.8-1.1-2.5-1.1-6.4,0-8.9,3.1-7,9.8-10.3,18.6-9.3,5.9.7,10.4,2.6,13.4,5.5,2.9,2.9,3.8,4.5,4,7.6.6,6.5-3.8,12.7-9.7,13.8ZM774.8,148.3c-1.5,2.4-3.8,4.3-6.2,5-2.8.8-5.6.5-8.3-.8-2.8-1.4-4.4-3.2-5.4-5.9-2.4-6.7,2.9-13.8,10.3-13.8,6.2,0,10.9,4.5,10.9,10.5,0,2.4-.2,3.1-1.4,5Z"/>
  <path d="M402.1,196.8c-1.5-1.5-.3-3.1,3.7-5.2,1.9-1,2-1.1,3.1-4.6.6-2,2.3-7.4,3.8-12,1.5-4.7,2.7-8.8,2.7-9.2s3.2-4,7.1-8.1l7.1-7.4v-11.7c.1-6.4.2-12.5.2-13.5v-1.8s-5-.3-5-.3c-6.8-.4-10.6-1-12.6-2-1.6-.8-1.9-1.1-5-8.1-1.8-4-3.4-7.4-3.6-7.6-.4-.4-2.8,1.7-14.7,13.5-5.1,5.1-8.5,8.1-9.1,8.1-1.3,0-2.4-1.4-2-2.6.2-.5,5.5-6.2,12-12.6l11.7-11.6-.5-1.7c-.4-1.5-.3-1.8.3-2.6.9-1,2.2-1.1,3.5-.2.9.6,1.1.5,6.8-4.4,9.6-8.2,24-19.4,33.1-25.6l3.9-2.7-.8-1.2c-1.5-2.1-1.2-2.2,4.7-3.3,3-.5,5.6-.9,5.7-.7.3.3-.8,3.2-3,7.4-1.6,3.2-1.9,3.6-2.8,3.5-.6,0-1.2-.4-1.4-.7-.3-.5-1.1-.1-4.4,2.2-9.2,6.4-22.3,16.5-31.3,24.3-3.2,2.8-6.3,5.4-6.8,5.9l-1,.8,1.8,4.4c4.1,10,4.7,11.1,5.6,11.1.4,0,3.3-.2,6.5-.3,3.1-.1,7.4-.4,9.5-.5l3.8-.2.3-3.8c.2-3.4.2-3.9-.7-5.5-1.3-2.5-1.3-7.3,0-10,1.4-2.8,3.2-3.8,6.3-3.6,4.2.3,6.7,3.1,6.7,7.4s-2,7.1-4.1,9.3c-1.3,1.3-1.6,2-1.8,3.8l-.2,2.2h8.3c9.5,0,8.3.5,12.3-5.1,1.2-1.8,4.1-5.7,6.4-8.7,3.5-4.7,4.3-5.5,5.3-5.5s1.6.3,2.1.8c.8.7.9.9.5,2.1-.2.7-2.1,3.4-4,6.1s-5,6.9-6.9,9.6c-1.8,2.6-3.8,5.1-4.3,5.6s-3.8,1.3-7.1,2.1-6.6,1.5-7.2,1.7c-1.5.6-2.6,2.4-3.4,6-.4,1.6-1.5,6.6-2.6,11.1s-1.9,8.5-1.9,8.9.9,1.8,1.9,3.2c2.9,3.7,6.5,9.4,6.7,10.6.2.9-2.5,17.8-3.4,21.6-.2.9,0,1.5,1.3,3.1,4.8,5.7,5.4,6.9,4.3,8-.3.3-1,.5-1.7.5-1,0-1.7-.7-4.8-4.5q-3.6-4.5-3.3-6.4c.2-1.1.3-5.8.3-10.5,0-8.2,0-8.7-1-11.1-.6-1.4-1.5-3.3-2.1-4.2s-1.5-2.3-1.9-3.1l-.7-1.4-6,6c-3.3,3.3-6.2,6.4-6.4,6.9s-.9,2.2-1.6,3.8-1.8,4.1-2.6,5.4c-1.5,2.5-4.9,10.8-5.4,13.1-.6,2.9-1,3.3-4.5,5.1-3.8,2-4.5,2.1-5.5,1.1h0Z"/>
</svg>